<?xml version="1.0" encoding="UTF-8" standalone="no"?>
<svg
   xmlns:dc="http://purl.org/dc/elements/1.1/"
   xmlns:cc="http://creativecommons.org/ns#"
   xmlns:rdf="http://www.w3.org/1999/02/22-rdf-syntax-ns#"
   xmlns:svg="http://www.w3.org/2000/svg"
   xmlns="http://www.w3.org/2000/svg"
   xmlns:sodipodi="http://sodipodi.sourceforge.net/DTD/sodipodi-0.dtd"
   xmlns:inkscape="http://www.inkscape.org/namespaces/inkscape"
   id="pagelogo"
   width="56.819"
   height="56.668999"
   viewBox="0 0 56.819 56.669"
   version="1.1"
   sodipodi:docname="logo.svg"
   inkscape:version="1.0.1 (3bc2e813f5, 2020-09-07)">
  <metadata
     id="metadata31">
    <rdf:RDF>
      <cc:Work
         rdf:about="">
        <dc:format>image/svg+xml</dc:format>
        <dc:type
           rdf:resource="http://purl.org/dc/dcmitype/StillImage" />
        <dc:title></dc:title>
      </cc:Work>
    </rdf:RDF>
  </metadata>
  <defs
     id="defs29" />
  <sodipodi:namedview
     pagecolor="#ffffff"
     bordercolor="#666666"
     borderopacity="1"
     objecttolerance="10"
     gridtolerance="10"
     guidetolerance="10"
     inkscape:pageopacity="0"
     inkscape:pageshadow="2"
     inkscape:window-width="1920"
     inkscape:window-height="1017"
     id="namedview27"
     showgrid="false"
     fit-margin-top="0"
     fit-margin-left="0"
     fit-margin-right="0"
     fit-margin-bottom="0"
     inkscape:zoom="10.745891"
     inkscape:cx="29.141"
     inkscape:cy="39.549999"
     inkscape:window-x="-8"
     inkscape:window-y="-8"
     inkscape:window-maximized="1"
     inkscape:current-layer="pagelogo" />
  <path
     d="m 23.538,51.722 a 4.947,4.947 0 1 0 4.947,-4.947 4.991,4.991 0 0 0 -4.947,4.947"
     fill="#ffffff"
     id="path2" />
  <path
     d="m 30.886,4.947 c 0,-2.7 -1.049,-4.947 -2.4,-4.947 -1.351,0 -2.4,2.249 -2.4,4.947 0,2.698 1.049,4.947 2.4,4.947 1.349,-0.15 2.4,-2.249 2.4,-4.947"
     fill="#ffffff"
     id="path4" />
  <path
     d="m 42.578,9.445 c 1.349,-2.4 1.349,-4.8 0,-5.7 -1.349,-0.75 -3.6,0.45 -4.947,2.848 -1.347,2.398 -1.349,4.8 0,5.7 1.5,0.75 3.6,-0.45 4.947,-2.848"
     fill="#ffffff"
     id="path6" />
  <path
     d="m 50.372,19.49 c 2.4,-1.349 3.448,-3.748 2.549,-5.247 -0.899,-1.499 -3.448,-1.8 -5.847,-0.45 -2.399,1.35 -3.448,3.748 -2.549,5.247 0.899,1.499 3.448,1.8 5.847,0.45"
     fill="#ffffff"
     id="path8" />
  <path
     d="m 36.282,50.823 a 4.517,4.517 0 0 0 6.3,1.949 4.732,4.732 0 0 0 1.5,-6.447 4.517,4.517 0 0 0 -6.3,-1.949 c -2.249,1.2 -2.848,4.048 -1.5,6.447"
     fill="#ffffff"
     id="path10" />
  <path
     d="m 51.872,31.937 c 2.7,0 4.947,-1.649 4.947,-3.6 0,-1.951 -2.249,-3.6 -4.947,-3.6 -2.698,0 -4.947,1.649 -4.947,3.6 0,1.951 2.249,3.6 4.947,3.6"
     fill="#ffffff"
     id="path12" />
  <path
     d="m 46.626,43.472 c 2.4,1.349 5.1,0.9 6.3,-1.049 1.049,-1.949 0.15,-4.648 -2.249,-6 -2.399,-1.352 -5.1,-0.9 -6.3,1.049 -1.049,2.1 0,4.648 2.249,6"
     fill="#ffffff"
     id="path14" />
  <path
     d="m 14.242,9.445 c -1.349,-2.4 -1.349,-4.8 0,-5.7 1.349,-0.75 3.6,0.45 4.947,2.848 1.347,2.398 1.349,4.8 0,5.7 -1.349,0.75 -3.6,-0.45 -4.947,-2.848"
     fill="#ffffff"
     id="path16" />
  <path
     d="m 6.447,19.49 c -2.4,-1.349 -3.448,-3.748 -2.549,-5.247 0.899,-1.499 3.448,-1.8 5.847,-0.45 2.399,1.35 3.448,3.748 2.549,5.247 -0.899,1.499 -3.448,1.8 -5.847,0.45"
     fill="#ffffff"
     id="path18" />
  <path
     d="m 20.54,50.823 a 4.517,4.517 0 0 1 -6.3,1.949 4.732,4.732 0 0 1 -1.5,-6.447 4.517,4.517 0 0 1 6.3,-1.949 c 2.249,1.2 2.848,4.048 1.5,6.447"
     fill="#ffffff"
     id="path20" />
  <path
     d="m 4.947,31.937 c -2.7,0 -4.947,-1.649 -4.947,-3.6 0,-1.951 2.249,-3.6 4.947,-3.6 2.698,0 4.947,1.649 4.947,3.6 0,1.951 -2.249,3.6 -4.947,3.6"
     fill="#ffffff"
     id="path22" />
  <path
     d="m 10.196,43.472 c -2.4,1.349 -5.1,0.9 -6.3,-1.049 -1.049,-1.949 -0.15,-4.648 2.249,-6 2.399,-1.352 5.1,-0.9 6.3,1.049 1.049,2.1 0,4.648 -2.249,6"
     fill="#ffffff"
     id="path24" />
</svg>
